ffmpeg started on 2023-02-27 at 23:08:45
Report written to "D:/java/GitHub/pornMagnetSpringBoot/jiuse911Modeul/Logs/2023-02-27_23-08-11-361_ffreport.log"
Command line:
"D:\\java\\GitHub\\pornMagnetSpringBoot\\ffmpeg.exe" -loglevel warning -i "concat:00.ts|01.ts|02.ts|03.ts|04.ts|05.ts|06.ts|07.ts|08.ts|09.ts|10.ts|11.ts|12.ts|13.ts|14.ts|15.ts|16.ts|17.ts|18.ts|19.ts|20.ts|" -map "0:v?" -map "0:a?" -map "0:s?" -metadata "date=2023-02-27T23:08:45.7147328+08:00" -metadata "encoding_tool=" -metadata "title=" -metadata "copyright=" -metadata "comment=" -metadata:s:a:0 "handler_name=" -metadata:s:a:0 "handler=" -c copy -y -bsf:a aac_adtstoasc "D:\\java\\GitHub\\pornMagnetSpringBoot\\Downloads\\[\xd4\xad\xb4\xb4]3P\xbc\xab\xc6\xb7\xca\xec\xc5\xae\xa3\xac\xc0\xcf\xb9\xab\xd4\xda\xbc\xd2\xc0\xef\xc9\xcf\xbb\xf0\xa3\xac\xcb\xfd\xb3\xf6\xc0\xb4\xb8\xf8\xc4\xd0\xc8\xcb\xd0\xba\xbb\xf0.mp4"
ffmpeg version N-94813-g85386c36e3-ffmpeg-for-N_m3u8DL-CLI Copyright (c) 2000-2019 the FFmpeg developers
  built with gcc 8.2.0 (GCC)
  libavutil      56. 35.100 / 56. 35.100
  libavcodec     58. 56.101 / 58. 56.101
  libavformat    58. 32.104 / 58. 32.104
  libavfilter     7. 58.102 /  7. 58.102
  libavresample   4.  0.  0 /  4.  0.  0
  libswresample   3.  6.100 /  3.  6.100
Input #0, mpegts, from 'concat:00.ts|01.ts|02.ts|03.ts|04.ts|05.ts|06.ts|07.ts|08.ts|09.ts|10.ts|11.ts|12.ts|13.ts|14.ts|15.ts|16.ts|17.ts|18.ts|19.ts|20.ts|':
  Duration: 00:03:24.13, start: 1.410144, bitrate: 968 kb/s
  Program 1 
    Metadata:
      service_name    : Service01
      service_provider: FFmpeg
    Stream #0:0[0x100]: Video: h264 ([27][0][0][0] / 0x001B), yuv420p(progressive), 600x336, 59.94 fps, 59.94 tbr, 90k tbn, 119.88 tbc
    Stream #0:1[0x101](und): Audio: aac ([15][0][0][0] / 0x000F), 44100 Hz, stereo, fltp, 134 kb/s
Output #0, mp4, to 'D:\java\GitHub\pornMagnetSpringBoot\Downloads\[原创]3P极品熟女，老公在家里上火，她出来给男人泻火.mp4':
  Metadata:
    date            : 2023-02-27T23:08:45.7147328+08:00
    encoder         : Lavf58.32.104
    Stream #0:0: Video: h264 (avc1 / 0x31637661), yuv420p(progressive), 600x336, q=2-31, 59.94 fps, 59.94 tbr, 90k tbn, 90k tbc
    Stream #0:1(und): Audio: aac (mp4a / 0x6134706D), 44100 Hz, stereo, fltp, 134 kb/s
Stream mapping:
  Stream #0:0 -> #0:0 (copy)
  Stream #0:1 -> #0:1 (copy)
Press [q] to stop, [?] for help
frame=12234 fps=0.0 q=-1.0 Lsize=   22491kB time=00:03:24.08 bitrate= 902.8kbits/s speed=1.7e+03x    
video:18857kB audio:3207kB subtitle:0kB other streams:0kB global headers:0kB muxing overhead: 1.938725%
